<svg version="1.2" xmlns="http://www.w3.org/2000/svg" viewBox="0 0 81 59" width="81" height="59"><style>.a{fill:#3250e6}</style><path class="a" d="m41.9 4h0.2l3.7 0.1h0.1q0.8 0.1 1.6 0.1 0.8 0.1 1.6 0.2 0.8 0.1 1.6 0.2 0.8 0.1 1.6 0.2l0.1 0.1q0.9 0.1 1.8 0.3 0.8 0.2 1.7 0.4 0.9 0.2 1.7 0.4 0.9 0.3 1.7 0.6l0.3 0.1c3.5 1.1 6.9 2.8 9.9 5l0.1 0.1q0.1 0.1 0.3 0.3 0.2 0.1 0.4 0.3 0.2 0.1 0.3 0.3 0.2 0.1 0.4 0.3l0.2 0.2q0.4 0.4 0.9 0.8l0.2 0.2q0.1 0.1 0.2 0.2 0.1 0.1 0.2 0.2 0.1 0.1 0.2 0.2 0 0.1 0.1 0.2l0.2 0.1q0.1 0.2 0.2 0.3 0.1 0.2 0.2 0.3 0.1 0.1 0.2 0.3 0.2 0.1 0.3 0.3l0.2 0.3c2.4 3.2 4 7.2 4.6 11.6l0.1 0.2v0.5 0.1q0.1 1.2 0.1 2.3v0.4q0 1.8-0.2 3.6v0.1c-0.5 3.1-1.5 6.1-3.1 8.8l-0.1 0.1c-0.8 1.3-1.6 2.6-2.7 3.7q0 0 0 0.1-0.1 0-0.1 0 0 0.1 0 0.1-0.1 0-0.1 0c-0.5 0.6-0.9 1.1-1.5 1.6q0 0 0 0-0.1 0.1-0.1 0.1-0.1 0-0.1 0.1 0 0-0.1 0-0.1 0.1-0.2 0.2-0.1 0.1-0.2 0.2-0.1 0.1-0.2 0.2-0.1 0.1-0.2 0.2l-0.2 0.1c-1.5 1.3-3.2 2.3-5 3.3h-0.2q-0.5 0.3-1 0.5-0.5 0.3-1 0.5-0.5 0.2-1.1 0.5-0.5 0.2-1 0.3l-0.1 0.1c-4 1.4-8.2 2.3-15.5 2.9h-0.1q-1.4 0-2.8 0h-0.2q-0.4 0-0.9 0-0.5 0-1 0-0.5 0-1 0-0.5-0.1-1-0.1h-0.1c-4.2-0.3-8.5-0.9-18.2-4.3l-0.2-0.1q-0.2-0.1-0.4-0.2-0.2-0.1-0.4-0.2-0.2-0.1-0.4-0.3-0.2-0.1-0.4-0.2l-0.4-0.2q-0.4-0.3-0.9-0.6-0.5-0.3-0.9-0.6-0.5-0.3-0.9-0.6-0.5-0.4-0.9-0.7l-0.4-0.3q0-0.1-0.1-0.1-0.1-0.1-0.1-0.1-0.1-0.1-0.2-0.2 0 0-0.1-0.1-0.1 0-0.1 0 0-0.1-0.1-0.1 0 0 0-0.1-0.1 0-0.1 0-0.2-0.2-0.4-0.4-0.2-0.2-0.3-0.3-0.1 0-0.1-0.1-0.1-0.1-0.2-0.1 0-0.1-0.1-0.2-0.1 0-0.1-0.1l-0.1-0.1-0.2-0.2-0.2-0.2q-0.3-0.4-0.6-0.8l-0.3-0.3c-2.7-3.2-4.4-7.3-5.3-13.7v-0.1q0-1 0-1.9v-0.1c0-1 0-2 0.1-3v-0.1c0.4-3.3 1.5-6.5 3.2-9.4l0.2-0.3c1-1.8 2.4-3.3 3.8-4.7l0.1-0.1q0.1-0.1 0.2-0.2 0.1-0.1 0.2-0.2 0.1-0.1 0.2-0.2 0.1-0.1 0.2-0.2l0.2-0.1q0.1-0.2 0.2-0.3 0.2-0.1 0.3-0.2 0.1-0.1 0.2-0.2 0.2-0.1 0.3-0.2l0.3-0.2q0.1-0.1 0.3-0.2 0.1-0.2 0.3-0.3 0.1-0.1 0.3-0.2 0.1-0.1 0.3-0.2l0.2-0.2c3.5-2.3 7.3-3.8 23-6.5l0.2-0.1q1.3 0 2.7 0zm-3.4 1.6h-0.1c-4.1 0.3-8.2 1-12.1 2.3l-0.1 0.1c-3.6 1.1-7 2.9-10.6 5.8q0 0.1 0 0.1-0.1 0-0.1 0 0 0.1-0.1 0.1 0 0 0 0.1-0.3 0.2-0.6 0.5-0.1 0.1-0.2 0.2-0.2 0.1-0.3 0.3-0.1 0.1-0.1 0.1 0 0-0.1 0.1 0 0-0.1 0 0 0.1 0 0.1-0.3 0.3-0.5 0.6-0.1 0-0.1 0.1 0 0-0.1 0 0 0.1 0 0.1-0.1 0.1-0.1 0.1c-2.5 2.9-3.9 6.6-4.8 17.4q0.2 3.3 1.2 6.4l0.1 0.1c0.9 2.8 2.3 5.3 4.3 7.4l0.2 0.2q0.1 0.2 0.3 0.3 0.1 0.2 0.3 0.3 0.1 0.2 0.3 0.3 0.1 0.1 0.3 0.3l0.1 0.1q0.4 0.3 0.8 0.7l0.1 0.1c1.3 1.1 2.8 2 4.3 2.8h0.1c2.7 1.5 5.5 2.5 8.4 3.2h0.1c2.9 0.8 5.9 1.2 8.9 1.5h0.1 0.8 0.1q1.2 0.1 2.5 0.1h0.4q0.6 0 1.2 0 0.5 0 1.1-0.1 0.5 0 1.1 0 0.5-0.1 1.1-0.1h0.1q0.3-0.1 0.7-0.1 0.3 0 0.6-0.1 0.4 0 0.7 0 0.3-0.1 0.7-0.1h0.1c2.5-0.4 5-0.9 7.4-1.7l0.2-0.1q2.1-0.6 4.1-1.5l0.1-0.1q0.4-0.2 0.8-0.4 0.4-0.2 0.9-0.4 0.4-0.2 0.8-0.4 0.4-0.2 0.8-0.5h0.1q0.4-0.3 0.8-0.6 0.4-0.2 0.8-0.5 0.4-0.3 0.8-0.6 0.4-0.3 0.8-0.6l0.1-0.1q0.1-0.1 0.3-0.3 0.2-0.1 0.4-0.3 0.2-0.2 0.3-0.3 0.2-0.2 0.4-0.4l0.4-0.3q0.1-0.2 0.2-0.3 0.1-0.1 0.2-0.2 0.1-0.1 0.2-0.2 0.1-0.1 0.2-0.2 0.1-0.2 0.2-0.3c0.8-1 1.5-2 2.1-3.1v-0.1c0.5-0.9 0.9-1.9 1.3-2.8v-0.2c1.3-3.5 1.7-7.4 0.2-17.4v-0.1c-0.9-2.7-2.2-5.3-4.2-7.4q0 0-0.1-0.1 0 0 0 0-0.1-0.1-0.1-0.1 0 0-0.1-0.1-0.3-0.3-0.6-0.6l-0.1-0.1q-0.1-0.1-0.2-0.2-0.1-0.1-0.1-0.2-0.1-0.1-0.2-0.1-0.1-0.1-0.2-0.2l-0.2-0.1q-0.1-0.2-0.2-0.3-0.2-0.1-0.3-0.2-0.1-0.1-0.3-0.2-0.1-0.1-0.3-0.2l-0.1-0.1q-0.1-0.1-0.3-0.3-0.1-0.1-0.3-0.2-0.2-0.1-0.3-0.2-0.2-0.1-0.4-0.3h-0.1c-2.3-1.6-4.8-2.7-7.4-3.7h-0.1c-3.6-1.3-7.4-2-15.7-2.6h-0.4q-1.8 0-3.6 0.1zm-26.6 18.8h5l-0.1 0.5c-0.2 0.7 0 1.4 0.1 2.1l0.1 0.2c0.4 1.8 1 3.5 1.6 5.3l0.3 1 0.1 0.3v0.3l0.1 0.2 0.1 0.2c0 0.1 0 0.1 0.1 0.2v-0.1q0-0.1 0.1-0.1 0-0.1 0-0.1 0 0 0-0.1 0 0 0-0.1l0.1-0.1v-0.2l0.1-0.1 0.1-0.4 0.2-0.4 0.2-0.7 1.8-5.2v-0.1c0.2-0.6 0.3-0.9 0-1.5v-0.1q-0.1-0.1-0.1-0.2-0.1-0.1-0.1-0.2-0.1-0.1-0.2-0.2 0-0.1-0.1-0.2c-0.1-0.1-0.1-0.1-0.1-0.2h4.4l-0.1 0.6c-0.2 1.3 0.5 2.8 0.9 4v0.1l1.5 4.3 0.1 0.4 0.1 0.2v0.2l0.1 0.2q0 0 0 0.1 0 0 0 0 0 0.1 0 0.1 0 0 0 0.1c0.2-0.1 0.2-0.2 0.2-0.3l0.1-0.2v-0.1l0.1-0.4 0.1-0.3 1.1-3.3 0.1-0.4 0.8-2.5v-0.1l0.3-1.1c0.1-0.6 0-1.1-0.1-1.6h4.3c-0.1 0.1-0.1 0.2-0.3 0.3-0.8 0.7-1.4 1.6-1.7 2.6l-0.1 0.2-0.7 1.7-0.1 0.5-0.3 0.7-0.6 1.6-0.4 1.1-0.1 0.3-0.6 1.4v0.1l-1 2.7-0.4 1.1-0.1 0.1v0.1 0.1l-0.1 0.2h-2.5l-1.1-3.2v-0.1l-0.4-1.2-0.5-1.4-0.2-0.5-0.8-2.5q-0.2 0.2-0.2 0.5l-0.1 0.1-0.1 0.4-0.1 0.3-1.1 2.9-0.2 0.5-0.1 0.4-1.3 3.4v0.1l-0.2 0.3h-2.5l-0.1-0.5-0.3-0.7v-0.1l-0.9-2.4-0.8-2.5-0.1-0.1v-0.2l-0.2-0.4v-0.1l-0.6-1.8-0.1-0.2v-0.1l-0.4-1c-0.7-2-0.7-2-1.6-4v-0.1q-0.1-0.2-0.3-0.4c-0.1-0.1-0.1-0.1-0.1-0.2zm44.8-0.2l-0.3 1.3v0.4l-0.1 0.2v0.1c0 0.2 0 0.3-0.1 0.4h-0.1c-2-0.4-3.9-0.6-5.9-0.6v4.6l3.9-0.2h0.1 0.2q0.1 0 0.2 0 0.1 0 0.2 0 0 0 0.1 0 0.1 0 0.2 0l-0.2 1.4-0.1 0.2-0.1 0.4q-0.1 0-0.2 0-0.1 0-0.2 0-0.1 0-0.2 0-0.1 0-0.3 0h-0.2l-0.4-0.1-3-0.1v1.7 0.7 0.8 0.3c0 0.9 0 0.9 0.2 1.7q0.4 0.1 0.7 0.1h0.1 0.3 0.2c1.6-0.1 3.2-0.4 4.8-0.7l0.5-0.2q-0.1 0.8-0.2 1.4l-0.1 0.4v0.3 0.1 0.1l-0.1 0.1v0.2h-0.2-0.6-0.2-0.1-0.1-0.3-0.8l-5-0.1h-1.3-2.5q0 0 0-0.1 0-0.1 0.1-0.1 0-0.1 0-0.1 0.1-0.1 0.1-0.1 0.4-0.7 0.6-1.5l0.1-0.1c0.2-0.6 0.2-1.2 0.2-1.9v-0.3-0.8-0.7-1.7-1.4-1.5-0.9-0.8-0.2q0-1.3-0.3-2.5h0.1 2.4 1.1l1-0.1h0.6 2.2 0.2l1.4-0.1h0.3 0.9c0 0 0 0 0.2 0zm-13.8 0.6h0.1q0.1 0.1 0.3 0.1 0.1 0.1 0.2 0.1 0.2 0.1 0.3 0.1 0.2 0.1 0.3 0.2v0.7 0.3l0.1 1.5-0.5-0.4c-1.1-0.8-2.6-1.6-4-1.4-0.5 0-1 0.2-1.3 0.5-0.3 0.5-0.4 0.9-0.3 1.4 0.1 0.7 0.6 1.2 1.2 1.6q0.7 0.5 1.5 0.9c1.9 1 1.9 1 2.5 1.5l0.1 0.1c0.8 0.7 1.3 1.6 1.4 2.7q0 0.4 0 0.8-0.1 0.4-0.3 0.7-0.1 0.4-0.3 0.8-0.2 0.3-0.5 0.6c-0.5 0.4-1 0.8-1.6 1l-0.1 0.1c-2 0.8-4.2 0.5-6.2-0.2-1.1-0.4-1.1-0.4-1.2-0.7q0-0.8 0.1-1.5v-0.3l0.2-1.8h0.1l0.1 0.2c0.2 0.4 0.4 0.8 0.7 1.1l0.1 0.1c0.8 0.9 2 1.8 3.2 1.9 0.6 0 1.2-0.1 1.7-0.6 0.4-0.4 0.5-0.9 0.4-1.4 0-0.6-0.3-1-0.7-1.4-0.6-0.5-1.3-0.9-1.9-1.2-3.3-1.9-3.3-1.9-3.8-3.6-0.2-0.9-0.2-1.9 0.3-2.8q0.1 0 0.1-0.1 0-0.1 0.1-0.1 0-0.1 0.1-0.1 0-0.1 0.1-0.2l0.1-0.1c0.9-1 2.3-1.5 3.7-1.6 1.2-0.1 2.4 0.1 3.6 0.5zm15.4-0.6h0.2 0.4 0.2q1.1 0.1 2.2 0.1h0.2 0.6 0.4 1.4 1.2 1.1 0.6l4-0.1-0.1 0.6v0.2l-0.1 0.7v0.2 0.3 0.2c-0.1 0.1-0.1 0.1-0.2 0.2h-0.1l-2.4-0.5h-0.1q-0.1 0-0.2 0-0.1 0-0.3 0-0.1 0-0.2 0-0.1 0-0.3 0h-0.2l-0.4-0.1v4.4 0.5 0.1 1.7 1.7 1.1 0.8 0.3q0 1 0.2 1.9v0.6h-4.1v-0.5l0.1-0.2v-0.3-0.1l0.1-0.1c0-0.6 0-1.2 0-1.9v-0.3-0.7-1-1.6-1.7-0.1-0.4l0.1-4.2-0.6 0.1h-0.2c-1.2 0-2.4 0.2-3.5 0.5q0 0-0.1 0 0 0-0.1 0 0 0-0.1 0 0 0-0.1 0 0-0.4 0.1-0.9v-0.1l0.1-0.3 0.1-0.4v-0.2-0.1l0.1-0.1v-0.1c0-0.1 0-0.1 0-0.2z"/></svg>