<svg xmlns="http://www.w3.org/2000/svg" width="170" height="55" fill="#3250e6"><path d="M84.948 0h.116l3.695.096.132.008a62.35 62.35 0 0 1 6.423.739l.109.018a47.03 47.03 0 0 1 6.918 1.708l.297.098c3.504 1.152 6.899 2.788 9.833 5.038l.085.065a22.05 22.05 0 0 1 1.432 1.198l.207.185c.3.266.585.546.868.83l.236.236a12.15 12.15 0 0 1 .736.786l.125.143a19.04 19.04 0 0 1 .9 1.122l.224.296c2.464 3.274 4.01 7.198 4.656 11.68l.02.152.057.508.012.112c.077.762.091 1.521.09 2.286l.001.388c.007 1.205-.061 2.401-.246 3.593l-.014.09c-.474 3.112-1.504 6.123-3.099 8.841l-.066.113c-.757 1.305-1.645 2.552-2.665 3.666a11.09 11.09 0 0 0-.225.255c-.461.529-.943 1.055-1.477 1.511a12.55 12.55 0 0 0-.303.276 14.14 14.14 0 0 1-.852.734l-.147.12c-1.555 1.264-3.266 2.347-5.044 3.267l-.161.084a33.16 33.16 0 0 1-4.151 1.808l-.104.037c-3.993 1.422-8.146 2.264-15.426 2.867l-.128.006c-.95.041-1.899.047-2.849.047h-.117a64.4 64.4 0 0 1-3.9-.096l-.144-.009c-4.242-.261-8.456-.864-18.245-4.347l-.122-.058a24.67 24.67 0 0 1-1.645-.882l-.353-.201a26.1 26.1 0 0 1-3.655-2.535l-.335-.272a13.78 13.78 0 0 1-.562-.49 14.36 14.36 0 0 0-.284-.25c-.148-.129-.287-.266-.423-.407-.086-.083-.174-.161-.264-.239a6.85 6.85 0 0 1-.53-.526l-.092-.099-.183-.197-.224-.24c-.22-.236-.431-.478-.634-.73l-.239-.292c-2.698-3.261-4.365-7.306-5.28-13.699l-.014-.16c-.047-.623-.041-1.248-.041-1.872v-.093c0-.998.018-1.987.143-2.978l.013-.104c.415-3.309 1.43-6.559 3.173-9.417l.194-.324c1.039-1.749 2.376-3.304 3.808-4.739l.075-.076a13.66 13.66 0 0 1 .832-.782l.157-.138a21.08 21.08 0 0 1 1.035-.852l.274-.215a19.11 19.11 0 0 1 1.222-.894l.242-.163c3.406-2.31 7.263-3.876 22.982-6.579l.124-.006c.932-.042 1.863-.047 2.796-.047zm-3.404 1.636l-.126.009c-4.126.287-8.217.969-12.149 2.279l-.1.033C65.602 5.144 62.226 6.876 58.63 9.82a10.74 10.74 0 0 1-.271.238c-.18.157-.346.326-.514.496-.079.077-.156.148-.242.216-.131.111-.236.231-.348.361a4.96 4.96 0 0 1-.277.285c-.179.177-.338.365-.495.562a12.02 12.02 0 0 1-.273.324c-2.488 2.877-3.892 6.62-4.811 17.379.159 2.175.566 4.328 1.24 6.402l.047.147c.895 2.762 2.359 5.273 4.335 7.397l.183.202a17 17 0 0 0 1.154 1.14l.129.119c.257.235.524.455.795.673l.15.122c1.315 1.07 2.761 1.974 4.25 2.781l.146.079c2.624 1.413 5.462 2.436 8.344 3.176l.114.029c2.926.749 5.916 1.196 8.927 1.411l.11.008.748.047.106.007c.828.049 1.657.046 2.485.046h.488a48.25 48.25 0 0 0 4.418-.177l.129-.011a52.56 52.56 0 0 0 2.668-.305l.104-.014c2.506-.344 5.011-.877 7.419-1.657l.185-.06c1.405-.453 2.781-.96 4.126-1.568l.084-.038a32.65 32.65 0 0 0 3.303-1.722l.108-.064a24.52 24.52 0 0 0 3.192-2.268l.077-.063a18.57 18.57 0 0 0 1.419-1.3l.372-.369a9.33 9.33 0 0 0 .809-.876c.085-.107.173-.211.263-.314.797-.92 1.445-1.953 2.031-3.017l.058-.104c.51-.922.911-1.895 1.262-2.887l.05-.14c1.24-3.53 1.654-7.373.214-17.369l-.048-.154c-.847-2.712-2.241-5.296-4.192-7.375a9.86 9.86 0 0 1-.255-.287c-.199-.228-.413-.441-.628-.655l-.12-.121a12.07 12.07 0 0 0-.696-.646l-.157-.138a21.82 21.82 0 0 0-1.119-.918l-.084-.064a25.35 25.35 0 0 0-1.324-.947l-.101-.068c-2.291-1.525-4.785-2.717-7.378-3.628l-.096-.034c-3.628-1.274-7.402-2.023-15.782-2.573l-.364.001c-1.187.002-2.371.014-3.555.099zM54.928 20.377h4.927l-.091.522c-.128.729.012 1.405.179 2.117l.035.149c.432 1.807 1.021 3.578 1.584 5.347l.305.972.109.351.067.217.091.292.05.163c.033.124.033.124.134.163l.017-.096a2.8 2.8 0 0 1 .102-.349l.047-.134.051-.145.054-.152.144-.409.151-.429.244-.692 1.739-5.179.028-.092c.164-.545.269-.918.022-1.445l-.054-.121a5.67 5.67 0 0 0-.457-.815c-.063-.106-.063-.106-.063-.237h4.355l-.091.577c-.236 1.347.468 2.829.883 4.086l.029.087 1.446 4.305.123.359.062.181.094.275.055.16a.61.61 0 0 1 .039.263c.132-.066.14-.174.185-.307l.038-.115.04-.121.133-.403.094-.284 1.049-3.29.128-.406.756-2.511.03-.105.288-1.086.022-.09c.13-.548.032-1.021-.079-1.575h4.267c-.055.166-.123.203-.261.308-.84.675-1.383 1.649-1.764 2.643l-.05.13-.672 1.775-.19.505-.231.615-.606 1.608-.43 1.141-.128.34-.516 1.368-.037.099-1.005 2.684-.415 1.107-.046.122-.043.113-.038.1-.076.17h-2.464l-1.121-3.222-.03-.091-.402-1.213-.47-1.417-.146-.441-.865-2.503c-.103.155-.161.316-.225.49l-.042.113-.138.376-.099.269-1.063 2.908-.19.522-.148.405-1.274 3.407-.035.092-.129.305h-2.508l-.176-.513-.239-.697-.032-.092-.848-2.429-.866-2.486-.032-.092-.063-.183-.154-.449-.03-.088-.621-1.791-.078-.222-.039-.111-.313-.904c-.7-2.059-.7-2.059-1.602-4.035l-.047-.09c-.079-.147-.163-.283-.262-.418s-.098-.138-.098-.226zm44.742-.22l-.221 1.388-.062.352-.04.225-.018.106c-.028.156-.053.259-.143.393l-.092-.021c-1.956-.436-3.879-.595-5.891-.595v4.575l3.894-.177.114-.009.205-.016a7.9 7.9 0 0 1 .671-.018l-.225 1.405-.037.194-.09.468a8.22 8.22 0 0 1-.886-.035l-.264-.023-.402-.036-2.979-.17.015 1.691.007.785.007.759.002.288c-.061.901-.061.901.189 1.711.239.075.454.1.704.092l.1-.002.321-.01.112-.003c1.656-.051 3.246-.325 4.851-.721l.467-.104c-.022.471-.097.93-.176 1.395l-.064.38-.041.243-.019.114-.018.106-.016.093-.061.263-.15-.003-.585-.013-.247-.005-.117-.003-.122-.003-.27-.006-.778-.019-5.056-.059-1.249-.007-2.558-.014a4.28 4.28 0 0 1 .25-.432c.285-.46.493-.924.643-1.444l.032-.111c.175-.637.187-1.252.186-1.908l.001-.299.001-.807v-.676-1.688l.001-1.459.001-1.505.001-.842v-.794-.289c.003-.846-.083-1.661-.281-2.485h.098l2.38-.014 1.151-.007 1.006-.006.53-.003 2.296-.034.107-.003 1.439-.058.285-.017.876-.069c.084-.008.084-.008.216-.008zm-13.8.611l.124.04a12.25 12.25 0 0 1 1.094.449l.038.751.013.254.038 1.546-.479-.366c-1.11-.883-2.549-1.628-4.002-1.463-.469.067-.977.212-1.31.569-.303.413-.361.847-.324 1.347.145.724.659 1.228 1.251 1.625.484.318.991.589 1.502.861 1.851.984 1.851.984 2.482 1.518l.118.1c.82.715 1.306 1.568 1.39 2.662a4.04 4.04 0 0 1-1.119 2.927c-.453.46-.989.785-1.577 1.042l-.083.037c-2.008.871-4.221.579-6.208-.169-1.073-.429-1.073-.429-1.232-.748-.026-.5.02-.992.077-1.488l.024-.213.251-1.819h.088l.063.145c.187.42.387.778.685 1.131l.096.115c.805.926 1.994 1.734 3.251 1.832.622.014 1.199-.097 1.666-.53.392-.409.465-.912.454-1.457-.026-.56-.37-.996-.762-1.37-.577-.5-1.256-.855-1.916-1.232-3.238-1.85-3.238-1.85-3.757-3.528-.249-.965-.171-1.927.308-2.805a4.3 4.3 0 0 1 .352-.484l.09-.112c.918-1.083 2.371-1.549 3.745-1.676 1.226-.098 2.407.126 3.569.507zm15.472-.611l.113.011.427.043.182.018c.743.075 1.482.11 2.228.11h.227l.61.001h.384 1.348l1.243.001 1.077.001.639.001 3.971-.187-.07.657-.024.222-.07.644-.023.209-.033.293-.019.17c-.025.137-.025.137-.113.269l-.135-.03-2.372-.454-.09-.011a12.76 12.76 0 0 0-1.015-.058l-.178-.006-.432-.013.01 4.368.002.517v.104l.004 1.661.004 1.708.002 1.051.002.81v.329c0 .658.036 1.297.134 1.949l.061.568h-4.179l.085-.559.023-.14.047-.284.023-.141.021-.125c.077-.604.072-1.208.073-1.816l.001-.328.002-.703.004-1.016.006-1.65.005-1.601v-.1l.002-.496.014-4.109-.531.016-.267.008c-1.168.037-2.317.227-3.453.497a1.68 1.68 0 0 1-.413.051c.026-.301.067-.595.124-.892l.023-.124.048-.258.074-.395.047-.251.022-.119.021-.11.018-.097c.018-.085.018-.085.062-.217z"/></svg>